<svg xmlns="http://www.w3.org/2000/svg" width="18" height="18" viewBox="0 0 18 18"><g><g><path fill="#fff" d="M17.786 17.155c-.143.473-.58.796-1.075.796H.985a1.123 1.123 0 0 1-.623-2.055c.112-.075 2.16-1.418 5.208-2.077-1.118-1.415-1.835-3.32-2.14-4.584-.423-1.756-.26-5.192 1.428-7.332C5.844.653 7.224-.01 8.848-.01s3.004.661 3.99 1.912c1.687 2.14 1.851 5.576 1.428 7.332-.304 1.265-1.022 3.169-2.14 4.584 3.047.66 5.095 2.002 5.208 2.077.412.273.596.787.452 1.259zM13.25 6.025c-.307-2.402-1.684-4.911-4.403-4.911-2.719 0-4.096 2.51-4.403 4.91-.333 2.5.443 5.119 2.007 7.1l.184.233c1.339 1.537 3.085 1.537 4.424 0l.184-.234c1.566-1.981 2.339-4.599 2.007-7.099zm3.46 10.807c-.106-.071-2.002-1.307-4.822-1.914l-1.395-.303c-.498.326-1.045.53-1.646.53s-1.148-.204-1.645-.53l-1.396.303c-2.841.614-4.745 1.86-4.822 1.914z"/></g></g></svg>